<?xml version="1.0" encoding="UTF-8" standalone="no"?>
<svg
   xmlns:dc="http://purl.org/dc/elements/1.1/"
   xmlns:cc="http://creativecommons.org/ns#"
   xmlns:rdf="http://www.w3.org/1999/02/22-rdf-syntax-ns#"
   xmlns:svg="http://www.w3.org/2000/svg"
   xmlns="http://www.w3.org/2000/svg"
   viewBox="0 0 450.66666 450.66666"
   height="450.66666"
   width="450.66666"
   xml:space="preserve"
   id="svg2"
   version="1.1"><metadata
     id="metadata8"><rdf:RDF><cc:Work
         rdf:about=""><dc:format>image/svg+xml</dc:format><dc:type
           rdf:resource="http://purl.org/dc/dcmitype/StillImage" /></cc:Work></rdf:RDF></metadata><defs
     id="defs6" /><g
     transform="matrix(1.3333333,0,0,-1.3333333,0,450.66667)"
     id="g10"><g
       transform="scale(0.1)"
       id="g12"><path
         id="path14"
         style="fill:#000000;fill-opacity:1;fill-rule:nonzero;stroke:none"
         d="m 942.602,3094.1 c 66.998,1.6 134.098,-0.6 201.098,1.5 10.9,-47.5 16.4,-97.5 42.3,-140 51,-93.8 153.4,-151.2 258.6,-157.9 0.7,-68.6 0.4,-137.2 0.1,-205.8 -106.1,0.3 -208.8,36.2 -296.6,94.7 -2.6,-154.7 0.8,-309.6 -1.6,-464.3 -8.4,-182 -168.398,-336.3 -347.199,-352.9 -115.102,-11.4 -234.5,31.8 -315.403,114.5 -134.699,129.1 -149,360.4 -34.898,507.1 84.102,109 225.5,171 362.801,154 3.898,-70.9 1,-142 1.699,-212.9 -65.102,13.8 -139.5,1.8 -184.898,-50.7 -81.602,-80.2 -54.301,-234.6 47.597,-284.9 81.903,-47.1 192.602,-10.7 240.199,68 21.301,34.3 27,75.6 26.602,115.3 -0.5,271.4 0,542.9 -0.398,814.3 m 1301.498,-100 c 164.6,9 329.9,8.1 494.7,1 108.1,-2.7 213.3,-67.4 259.9,-165.8 41.6,-79.8 34,-172.3 36.2,-259.3 -1,-120.2 2.8,-240.6 -4.1,-360.7 -7.7,-105.5 -71.5,-207.3 -169.3,-251.2 -71.6,-37.2 -154,-27.2 -231.7,-32.4 -136,-0.3 -272.2,-3.1 -407.9,6.6 -130.4,15.3 -239.6,126.8 -252.6,257.3 -10.7,129.9 -5.2,260.5 -6.5,390.8 3.4,81.7 -4.3,168 32.6,243.7 43.7,96.6 143.9,161.7 248.7,170 m -20.3,-100.3 c -54,-7.3 -103.1,-39.5 -132.4,-85.2 -27.9,-43.8 -31.6,-97.7 -35,-148.2 -2.4,-130.2 -2.1,-260.5 -0.3,-390.6 2.9,-64.8 9.7,-137.1 58.6,-185.1 45.8,-52.5 119.4,-60.6 184.7,-64 96.9,-1.6 193.7,-0.3 290.6,-0.7 71.9,0.4 145.4,-3.9 215.3,16.5 67.2,20.6 117.9,83.2 126.9,152.6 8,66.6 12.3,133.7 11.2,200.9 -2.8,119.2 6.8,239.6 -14.1,357.8 -13.6,69.4 -70.9,128.3 -140.4,142.5 -75.2,16.8 -152.8,9.9 -229.1,14.7 -112,0.3 -224.7,3.6 -336,-11.2 m 539.7,-86.3 c 42,17.1 92.7,-20.1 83.8,-66 -1.4,-47 -63.5,-71.4 -98.9,-42.7 -38.4,26.7 -30.8,94.5 15.1,108.7 M 2464.4,2734 c 143.3,22.2 288,-90.8 305.2,-233.9 27.9,-157 -109.6,-318.7 -269.7,-312.9 -143.1,-6.3 -273.6,120.2 -275.7,262.6 -9.4,137.9 102.9,270.3 240.2,284.2 m -20.3,-99.8 c -91.1,-25 -149.7,-130.2 -121.5,-220.7 19.1,-78.4 96.7,-135.1 176.7,-133.4 91.6,-1.6 178.3,77.1 179.1,169.9 5.3,60.1 -22.5,121.8 -71.7,156.9 -45.8,34.6 -108.1,42.9 -162.6,27.3 m -281.4,-1307 c 131.3,104 313.8,136.9 474.1,89.9 239.8,-67.2 415.9,-318.4 384.2,-567.6 -15.8,-152.602 -102.9,-294.801 -229.4,-381 -151.4,-106 -360.9,-125.602 -527.7,-44.398 -15.3,6.296 -31.3,17.097 -48.3,10.199 -87.5,-22.602 -174.5,-46.801 -262.2,-68.5 21,91.898 52.8,181.597 70.7,274 -53.1,104.097 -81.7,223.597 -61.6,340.199 16.9,136.6 91.8,263.2 200.2,347.2 m 86.7,-46.3 c -83.7,-56.1 -152.4,-137.6 -184,-234.1 -38.9,-114.198 -28.2,-244.902 31.5,-350.101 8.8,-19.097 26.5,-38.301 18.9,-60.898 -11.9,-48.903 -28.1,-96.699 -39.2,-145.903 52.4,11.204 103.5,27.5 155.8,38.801 15.8,4.102 29.8,-7.597 43.7,-13.301 91.5,-49.699 200.9,-68.199 303,-44.796 146.3,28 273.1,136 327.5,274.097 44.4,109.5 42.5,237.903 -10.2,344.101 -46.1,94.3 -124.4,173.3 -218.9,219.2 -134.9,64 -302.3,53.3 -428.1,-27.1 M 663.801,1416.2 c 165.398,6.2 331.597,7.5 496.699,-6 66,-6.2 137.2,-25.5 180.7,-79.1 27.2,-33.4 41.9,-75.2 49.6,-117.2 18.8,-127.1 13.3,-255.9 14.1,-383.9 0.4,-94.398 -0.1,-189.301 -14.5,-282.898 C 1379.6,484.5 1349.1,419.898 1290.6,389 c -79.4,-43.602 -173.1,-39.398 -260.8,-43.699 -83.198,-5.102 -166.402,1.801 -249.601,-2.403 -101.597,6.301 -207.199,-3.199 -304.597,31.801 -62,21.5 -106.5,77.602 -122,140.301 -23.704,92.898 -19.704,189.898 -20.903,285 1.403,120 -3.699,240.3 5.699,360 6.801,71.6 23.602,151.4 83.602,198 69,52.2 159.199,53.3 241.801,58.2 M 511.898,1092.1 C 511.5,963 546.699,824.602 644.199,734.102 c 71.903,-69.5 175.5,-93.403 273,-92.204 1.301,53.903 -0.597,107.801 1.403,161.704 86.998,-12.301 157.398,-78.704 183.998,-161 42.7,-0.204 85.5,-0.801 128.2,0.796 -23.9,96.801 -93.4,176 -177.8,226.102 76.1,52.199 132.9,131.3 151.5,222.4 -38.9,1.5 -77.7,1.1 -116.6,0.7 -28.6,-78.4 -82.5,-158.901 -169.4,-177.498 -1.898,59 -0.102,117.998 -1.102,176.998 -39.5,1.1 -79.097,1.3 -118.699,-0.2 -1.898,-102.9 1,-205.9 -1.301,-308.798 -56.296,20.699 -98.398,68.199 -124.296,121 -27.903,58.597 -30.704,124.398 -37.704,187.798 -41.097,1.4 -82.296,1.4 -123.5,0.2 m 1757.802,47.6 c 19.1,16.3 46,9.1 68.9,10.5 24.8,-43.4 47.2,-89.8 57.5,-138.7 -10.5,-23.801 -28.1,-43.398 -44.7,-63.102 35.4,-89.699 120,-148.699 207.7,-180.796 22,23.597 42.6,48.398 62.1,74 47.7,-17.204 94,-38.5 137.3,-64.903 -3.8,-29.898 -6.2,-63.597 -28.4,-86.5 -36.7,-33.097 -89.3,-48.898 -137.9,-37.199 -100.1,24.801 -192.9,80.602 -259.4,159.801 -52.9,58.801 -108.5,125 -114.8,207.299 0.3,44.3 17.1,90.6 51.7,119.6" /></g></g></svg>