<?xml version="1.0" standalone="no"?>
<!DOCTYPE svg PUBLIC "-//W3C//DTD SVG 20010904//EN"
 "http://www.w3.org/TR/2001/REC-SVG-20010904/DTD/svg10.dtd">
<svg version="1.0" xmlns="http://www.w3.org/2000/svg"
 width="2000.000000pt" height="2000.000000pt" viewBox="0 0 2000.000000 2000.000000"
 preserveAspectRatio="xMidYMid meet">
<metadata>
Created by potrace 1.14, written by Peter Selinger 2001-2017
</metadata>
<g transform="translate(0.000000,2000.000000) scale(0.100000,-0.100000)"
fill="#000000" stroke="none">
<path d="M9940 18744 c-49 -10 -126 -37 -165 -60 -112 -65 179 441 -4846
-8429 -2586 -4565 -4712 -8323 -4725 -8351 -38 -85 -50 -163 -37 -247 27 -191
177 -360 351 -396 76 -16 18868 -16 18944 0 121 25 250 129 312 253 57 112 58
265 2 388 -13 29 -2139 3788 -4725 8353 -4925 8694 -4730 8355 -4835 8422 -74
48 -206 79 -276 67z m155 -2798 c28 -13 64 -39 82 -57 45 -47 7382 -13000
7401 -13065 29 -100 -12 -199 -100 -246 l-43 -23 -7435 -3 c-6793 -2 -7439 -1
-7477 14 -101 38 -157 165 -119 270 24 67 7365 13017 7399 13053 46 49 120 81
187 81 37 0 71 -8 105 -24z"/>
<path d="M10041 12089 c-216 -9 -397 -21 -401 -26 -9 -10 -1360 -4246 -1356
-4251 2 -1 588 28 1302 67 715 38 1299 69 1300 68 2 -3 -694 -2179 -698 -2182
-2 -1 -124 64 -273 146 -148 81 -271 146 -273 144 -4 -4 177 -1904 185 -1946
l8 -37 716 707 c542 535 712 708 700 713 -9 4 -162 37 -340 73 -179 36 -326
67 -327 68 -1 1 239 650 532 1442 293 791 532 1441 530 1443 -2 2 -566 -19
-1252 -47 -687 -27 -1249 -49 -1250 -48 -1 1 322 830 717 1842 395 1012 719
1841 719 1843 0 4 -144 -1 -539 -19z"/>
</g>
</svg>
